<svg width="32" height="32" viewBox="0 0 32 32" fill="none" xmlns="http://www.w3.org/2000/svg">
<path d="M20.1624 1.54298L17.119 0.720459L14.5543 10.3748L12.2389 1.65879L9.19539 2.48132L11.6971 11.8983L5.4659 5.61332L3.23796 7.86049L10.0728 14.7544L1.56109 12.454L0.745605 15.5236L10.0457 18.0371C9.93925 17.5739 9.88292 17.0912 9.88292 16.5953C9.88292 13.085 12.7042 10.2393 16.1845 10.2393C19.6648 10.2393 22.4861 13.085 22.4861 16.5953C22.4861 17.088 22.4305 17.5677 22.3253 18.0282L30.7774 20.3125L31.5928 17.2428L22.2557 14.7193L30.768 12.4188L29.9525 9.34912L20.6158 11.8724L26.847 5.58752L24.619 3.34034L17.879 10.1386L20.1624 1.54298Z" fill="#999999"/>
<path d="M22.3172 18.064C22.0562 19.1766 21.5054 20.1762 20.7495 20.9771L26.8727 27.1531L29.1006 24.906L22.3172 18.064Z" fill="#999999"/>
<path d="M20.6874 21.0416C19.9224 21.8297 18.9557 22.4178 17.8716 22.7208L20.0997 31.108L23.1431 30.2854L20.6874 21.0416Z" fill="#999999"/>
<path d="M17.7578 22.7515C17.2548 22.882 16.7276 22.9513 16.1843 22.9513C15.6023 22.9513 15.0386 22.8717 14.5036 22.7227L12.2734 31.1174L15.3168 31.9399L17.7578 22.7515Z" fill="#999999"/>
<path d="M14.3964 22.6917C13.3288 22.3736 12.3793 21.778 11.6299 20.9877L5.4917 27.1789L7.71964 29.4261L14.3964 22.6917Z" fill="#999999"/>
<path d="M11.5783 20.9329C10.8418 20.1376 10.3054 19.1514 10.05 18.0559L1.57031 20.3477L2.38579 23.4173L11.5783 20.9329Z" fill="#999999"/>
</svg>
